<?xml version="1.0" encoding="UTF-8"?>
<svg width="784px" height="155px" viewBox="0 0 784 155" version="1.1" xmlns="http://www.w3.org/2000/svg" xmlns:xlink="http://www.w3.org/1999/xlink">
    <!-- Generator: Sketch 48.2 (47327) - http://www.bohemiancoding.com/sketch -->
    <title>TopLineHRLogo</title>
    <desc>Created with Sketch.</desc>
    <defs></defs>
    <g id="Page-1" stroke="none" stroke-width="1" fill="none" fill-rule="evenodd">
        <g id="Group">
            <ellipse id="Oval" fill="#114C6A" cx="210" cy="42.5" rx="16" ry="15.5"></ellipse>
            <ellipse id="Oval" fill="#726559" cx="60" cy="69.5" rx="16" ry="15.5"></ellipse>
            <rect id="Rectangle-2" fill="#D1D2D5" x="1" y="115" width="23" height="40"></rect>
            <rect id="Rectangle-2" fill="#D1D2D5" x="28" y="128" width="23" height="27"></rect>
            <rect id="Rectangle-2" fill="#D1D2D5" x="55" y="134" width="23" height="21"></rect>
            <rect id="Rectangle-2" fill="#D1D2D5" x="82" y="120" width="23" height="35"></rect>
            <rect id="Rectangle-2" fill="#D1D2D5" x="109" y="100" width="23" height="55"></rect>
            <rect id="Rectangle-2" fill="#D1D2D5" x="136" y="83" width="23" height="72"></rect>
            <rect id="Rectangle-2" fill="#D1D2D5" x="163" y="88" width="23" height="67"></rect>
            <rect id="Rectangle-2" fill="#D1D2D5" x="190" y="104" width="23" height="51"></rect>
            <rect id="Rectangle-2" fill="#D1D2D5" x="217" y="104" width="23" height="51"></rect>
            <rect id="Rectangle-2" fill="#D1D2D5" x="244" y="83" width="23" height="72"></rect>
            <rect id="Rectangle-2" fill="#D1D2D5" x="271" y="65" width="23" height="90"></rect>
            <rect id="Rectangle-2" fill="#D1D2D5" x="298" y="52" width="23" height="103"></rect>
            <polygon id="Path-2" fill="#726559" points="0 71.8866791 0 90.2231299 62.3778671 121 150 62.0114936 150 42 62.3778671 102.185813"></polygon>
            <polygon id="Path-3" fill="#114C6A" points="163 41.8990185 163 61.9066944 210.74808 94 303.630679 31.7813326 314.257356 41.8990185 330 0 281.66622 10.5390713 289.90592 20.5443878 210.74808 72.9706493"></polygon>
        </g>
        <g id="Group-2" transform="translate(348.000000, 68.000000)" fill="#114C6A">
            <path d="M26.0112024,16.5731759 L26.0112024,86.278004 L11.7820777,86.278004 L11.7820777,16.5731759 L-2.84217094e-14,16.5731759 L-2.84217094e-14,0 L37.7932802,0 L37.7932802,16.5731759 L26.0112024,16.5731759 Z M87.5193646,51.5403314 C87.5193646,56.7775775 86.9453717,61.5627275 85.7973686,65.8959251 C84.6493656,70.2291227 83.0180173,73.9231962 80.9032748,76.9782564 C78.7885323,80.0333165 76.2055642,82.4025114 73.1542929,84.0859119 C70.1030216,85.7693124 66.6741692,86.611 62.8676327,86.611 C59.0610962,86.611 55.6322438,85.7693124 52.5809725,84.0859119 C49.5297012,82.4025114 46.9467331,80.0333165 44.8319906,76.9782564 C42.7172481,73.9231962 41.0858998,70.2291227 39.9378968,65.8959251 C38.7898937,61.5627275 38.2159008,56.7775775 38.2159008,51.5403314 C38.2159008,46.3030854 38.7747886,41.549109 39.8925811,37.2782596 C41.0103736,33.0074101 42.6266168,29.3600971 44.7413592,26.336211 C46.8561017,23.3123249 49.4390699,20.9743037 52.4903412,19.3220772 C55.5416124,17.6698508 59.000675,16.84375 62.8676327,16.84375 C66.6741692,16.84375 70.1030216,17.6698508 73.1542929,19.3220772 C76.2055642,20.9743037 78.7885323,23.3123249 80.9032748,26.336211 C83.0180173,29.3600971 84.6493656,33.0074101 85.7973686,37.2782596 C86.9453717,41.549109 87.5193646,46.3030854 87.5193646,51.5403314 Z M72.6558204,51.5403314 C72.6558204,48.6723158 72.4443493,46.0069716 72.0214008,43.544219 C71.5984523,41.0814664 70.9791442,38.9460737 70.1634578,37.1379769 C69.3477714,35.32988 68.3357312,33.9114805 67.127307,32.8827358 C65.9188827,31.853991 64.4990055,31.3396263 62.8676327,31.3396263 C61.2362599,31.3396263 59.8012776,31.853991 58.5626428,32.8827358 C57.3240079,33.9114805 56.2968627,35.32988 55.4811763,37.1379769 C54.6654899,38.9460737 54.0612868,41.0814664 53.6685489,43.544219 C53.275811,46.0069716 53.079445,48.6723158 53.079445,51.5403314 C53.079445,54.4083471 53.275811,57.0892781 53.6685489,59.5832048 C54.0612868,62.0771314 54.6654899,64.2281109 55.4811763,66.0362078 C56.2968627,67.8443046 57.3240079,69.2782909 58.5626428,70.3382098 C59.8012776,71.3981286 61.2362599,71.9280801 62.8676327,71.9280801 C64.4990055,71.9280801 65.9188827,71.3981286 67.127307,70.3382098 C68.3357312,69.2782909 69.3477714,67.8443046 70.1634578,66.0362078 C70.9791442,64.2281109 71.5984523,62.0771314 72.0214008,59.5832048 C72.4443493,57.0892781 72.6558204,54.4083471 72.6558204,51.5403314 Z M135.916515,37.9979256 C135.916515,41.8739033 135.372732,45.2242745 134.28515,48.0491396 C133.197568,50.8740047 131.747481,53.2061258 129.934845,55.0455729 C128.122208,56.8850199 126.067918,58.2481611 123.771912,59.1350374 C121.475905,60.0219136 119.149724,60.4653451 116.793296,60.4653451 L110.539732,60.4653451 L110.539732,85.889004 L96.3106072,85.889004 L96.3106072,16.121754 L116.249508,16.121754 C118.545514,16.121754 120.856591,16.4830686 123.182808,17.2057085 C125.509024,17.9283484 127.623735,19.1272557 129.527003,20.8024664 C131.430272,22.4776771 132.970989,24.7276813 134.149203,27.5525464 C135.327417,30.3774115 135.916515,33.8591698 135.916515,37.9979256 Z M122.32181,38.2935496 C122.32181,35.1402118 121.626976,32.8737842 120.237288,31.4941989 C118.8476,30.1146136 117.155832,29.4248314 115.161932,29.4248314 L110.539732,29.4248314 L110.539732,47.6549744 L115.161932,47.6549744 C117.155832,47.6549744 118.8476,46.8502283 120.237288,45.2407122 C121.626976,43.631196 122.32181,41.3154983 122.32181,38.2935496 Z M159.18839,86.278004 L159.18839,0 L173.870672,0 L173.870672,68.2424891 L191,68.2424891 L191,86.278004 L159.18839,86.278004 Z M200.40835,86.167008 L200.40835,16.399758 L215,16.399758 L215,86.167008 L200.40835,86.167008 Z M253.502036,86.167008 L238.638492,43.6957019 L238.366598,43.6957019 L238.729123,86.167008 L225.768838,86.167008 L225.768838,16.399758 L241.719958,16.399758 L256.492871,59.4623121 L256.764765,59.4623121 L256.492871,16.399758 L269,16.399758 L269,86.167008 L253.502036,86.167008 Z M279,86.167008 L279,16.399758 L309.995928,16.399758 L309.995928,30.2940833 L292.866599,30.2940833 L292.866599,43.9913258 L308.636457,43.9913258 L308.636457,56.9987792 L292.866599,56.9987792 L292.866599,72.0756002 L311.083504,72.0756002 L311.083504,86.167008 L279,86.167008 Z" id="Top-Line-HR"></path>
        </g>
        <path d="M711.842292,154.844 L711.842292,118.536339 L696.135569,118.536339 L696.135569,154.844 L681,154.844 L681,68 L696.135569,68 L696.135569,100.995814 L711.842292,100.995814 L711.842292,68 L726.977861,68 L726.977861,154.844 L711.842292,154.844 Z M767.148994,154.844 L758.10573,120.253593 L753.631693,120.253593 L753.631693,154.844 L738.972086,154.844 L738.972086,68 L760.580728,68 C767.117296,68 772.194166,70.1874329 775.81149,74.5623644 C779.428814,78.9372959 781.237448,85.4587081 781.237448,94.1267966 C781.237448,97.315999 780.951875,100.178061 780.380718,102.713068 C779.809562,105.248075 779.063896,107.415064 778.1437,109.214102 C777.223504,111.013139 776.192264,112.485056 775.049952,113.629898 C773.907639,114.77474 772.797074,115.592472 771.718223,116.083119 L783.236486,154.844 L767.148994,154.844 Z M766.197072,94.2071731 C766.197072,91.9992637 765.959093,90.2002535 765.48313,88.8100883 C765.007166,87.4199232 764.388422,86.3159851 763.626881,85.4982409 C762.865339,84.6804967 762.024482,84.1285276 761.104286,83.8423172 C760.184089,83.5561067 759.279772,83.4130036 758.391306,83.4130036 L753.631693,83.4130036 L753.631693,105.369326 L758.10573,105.369326 C760.263432,105.369326 762.151392,104.490264 763.769669,102.732114 C765.387945,100.973964 766.197072,98.1323453 766.197072,94.2071731 Z" id="HR" fill="#726559"></path>
    </g>
</svg>