<?xml version="1.0" encoding="UTF-8"?>
<svg width="454px" height="305px" viewBox="0 0 454 305" version="1.1" xmlns="http://www.w3.org/2000/svg" xmlns:xlink="http://www.w3.org/1999/xlink">
    <!-- Generator: Sketch 48.2 (47327) - http://www.bohemiancoding.com/sketch -->
    <title>TopLineHRLogo</title>
    <desc>Created with Sketch.</desc>
    <defs></defs>
    <g id="Page-1" stroke="none" stroke-width="1" fill="none" fill-rule="evenodd">
        <g id="Group" transform="translate(1.000000, 0.000000)">
            <ellipse id="Oval" fill="#114C6A" cx="288" cy="55.5" rx="22" ry="20.5"></ellipse>
            <ellipse id="Oval" fill="#726559" cx="82" cy="91.5" rx="22" ry="20.5"></ellipse>
            <rect id="Rectangle-2" fill="#D1D2D5" x="2" y="151" width="32" height="53"></rect>
            <rect id="Rectangle-2" fill="#D1D2D5" x="39" y="168" width="32" height="36"></rect>
            <rect id="Rectangle-2" fill="#D1D2D5" x="76" y="176" width="32" height="28"></rect>
            <rect id="Rectangle-2" fill="#D1D2D5" x="113" y="158" width="32" height="46"></rect>
            <rect id="Rectangle-2" fill="#D1D2D5" x="150" y="132" width="32" height="72"></rect>
            <rect id="Rectangle-2" fill="#D1D2D5" x="187" y="109" width="32" height="95"></rect>
            <rect id="Rectangle-2" fill="#D1D2D5" x="224" y="116" width="32" height="88"></rect>
            <rect id="Rectangle-2" fill="#D1D2D5" x="261" y="137" width="32" height="67"></rect>
            <rect id="Rectangle-2" fill="#D1D2D5" x="298" y="137" width="32" height="67"></rect>
            <rect id="Rectangle-2" fill="#D1D2D5" x="335" y="109" width="32" height="95"></rect>
            <rect id="Rectangle-2" fill="#D1D2D5" x="372" y="85" width="32" height="119"></rect>
            <rect id="Rectangle-2" fill="#D1D2D5" x="409" y="69" width="32" height="135"></rect>
            <polygon id="Path-2" fill="#726559" points="0.09375 94.9160156 0.09375 119.054687 85.9648438 159.570312 206.587891 81.9160156 206.587891 55.5722656 85.9648438 134.802734"></polygon>
            <polygon id="Path-3" fill="#114C6A" points="224.052734 55.7050781 224.052734 82.1347656 289.494141 124.529297 416.794922 42.3398437 431.359375 55.7050781 452.935547 0.357421875 386.691406 14.2792969 397.984375 27.4960938 289.494141 96.75"></polygon>
        </g>
        <path d="M27.0112024,234.573176 L27.0112024,304.278004 L12.7820777,304.278004 L12.7820777,234.573176 L1,234.573176 L1,218 L38.7932802,218 L38.7932802,234.573176 L27.0112024,234.573176 Z M88.5193646,269.540331 C88.5193646,274.777577 87.9453717,279.562727 86.7973686,283.895925 C85.6493656,288.229123 84.0180173,291.923196 81.9032748,294.978256 C79.7885323,298.033317 77.2055642,300.402511 74.1542929,302.085912 C71.1030216,303.769312 67.6741692,304.611 63.8676327,304.611 C60.0610962,304.611 56.6322438,303.769312 53.5809725,302.085912 C50.5297012,300.402511 47.9467331,298.033317 45.8319906,294.978256 C43.7172481,291.923196 42.0858998,288.229123 40.9378968,283.895925 C39.7898937,279.562727 39.2159008,274.777577 39.2159008,269.540331 C39.2159008,264.303085 39.7747886,259.549109 40.8925811,255.27826 C42.0103736,251.00741 43.6266168,247.360097 45.7413592,244.336211 C47.8561017,241.312325 50.4390699,238.974304 53.4903412,237.322077 C56.5416124,235.669851 60.000675,234.84375 63.8676327,234.84375 C67.6741692,234.84375 71.1030216,235.669851 74.1542929,237.322077 C77.2055642,238.974304 79.7885323,241.312325 81.9032748,244.336211 C84.0180173,247.360097 85.6493656,251.00741 86.7973686,255.27826 C87.9453717,259.549109 88.5193646,264.303085 88.5193646,269.540331 Z M73.6558204,269.540331 C73.6558204,266.672316 73.4443493,264.006972 73.0214008,261.544219 C72.5984523,259.081466 71.9791442,256.946074 71.1634578,255.137977 C70.3477714,253.32988 69.3357312,251.911481 68.127307,250.882736 C66.9188827,249.853991 65.4990055,249.339626 63.8676327,249.339626 C62.2362599,249.339626 60.8012776,249.853991 59.5626428,250.882736 C58.3240079,251.911481 57.2968627,253.32988 56.4811763,255.137977 C55.6654899,256.946074 55.0612868,259.081466 54.6685489,261.544219 C54.275811,264.006972 54.079445,266.672316 54.079445,269.540331 C54.079445,272.408347 54.275811,275.089278 54.6685489,277.583205 C55.0612868,280.077131 55.6654899,282.228111 56.4811763,284.036208 C57.2968627,285.844305 58.3240079,287.278291 59.5626428,288.33821 C60.8012776,289.398129 62.2362599,289.92808 63.8676327,289.92808 C65.4990055,289.92808 66.9188827,289.398129 68.127307,288.33821 C69.3357312,287.278291 70.3477714,285.844305 71.1634578,284.036208 C71.9791442,282.228111 72.5984523,280.077131 73.0214008,277.583205 C73.4443493,275.089278 73.6558204,272.408347 73.6558204,269.540331 Z M136.916515,255.997926 C136.916515,259.873903 136.372732,263.224275 135.28515,266.04914 C134.197568,268.874005 132.747481,271.206126 130.934845,273.045573 C129.122208,274.88502 127.067918,276.248161 124.771912,277.135037 C122.475905,278.021914 120.149724,278.465345 117.793296,278.465345 L111.539732,278.465345 L111.539732,303.889004 L97.3106072,303.889004 L97.3106072,234.121754 L117.249508,234.121754 C119.545514,234.121754 121.856591,234.483069 124.182808,235.205708 C126.509024,235.928348 128.623735,237.127256 130.527003,238.802466 C132.430272,240.477677 133.970989,242.727681 135.149203,245.552546 C136.327417,248.377412 136.916515,251.85917 136.916515,255.997926 Z M123.32181,256.29355 C123.32181,253.140212 122.626976,250.873784 121.237288,249.494199 C119.8476,248.114614 118.155832,247.424831 116.161932,247.424831 L111.539732,247.424831 L111.539732,265.654974 L116.161932,265.654974 C118.155832,265.654974 119.8476,264.850228 121.237288,263.240712 C122.626976,261.631196 123.32181,259.315498 123.32181,256.29355 Z M160.18839,304.278004 L160.18839,218 L174.870672,218 L174.870672,286.242489 L192,286.242489 L192,304.278004 L160.18839,304.278004 Z M201.40835,304.167008 L201.40835,234.399758 L216,234.399758 L216,304.167008 L201.40835,304.167008 Z M254.502036,304.167008 L239.638492,261.695702 L239.366598,261.695702 L239.729123,304.167008 L226.768838,304.167008 L226.768838,234.399758 L242.719958,234.399758 L257.492871,277.462312 L257.764765,277.462312 L257.492871,234.399758 L270,234.399758 L270,304.167008 L254.502036,304.167008 Z M280,304.167008 L280,234.399758 L310.995928,234.399758 L310.995928,248.294083 L293.866599,248.294083 L293.866599,261.991326 L309.636457,261.991326 L309.636457,274.998779 L293.866599,274.998779 L293.866599,290.0756 L312.083504,290.0756 L312.083504,304.167008 L280,304.167008 Z" id="Top-Line-HR" fill="#114C6A"></path>
        <path d="M376.665049,304.844 L376.665049,268.536339 L360.958326,268.536339 L360.958326,304.844 L345.822757,304.844 L345.822757,218 L360.958326,218 L360.958326,250.995814 L376.665049,250.995814 L376.665049,218 L391.800618,218 L391.800618,304.844 L376.665049,304.844 Z M431.971751,304.844 L422.928487,270.253593 L418.45445,270.253593 L418.45445,304.844 L403.794843,304.844 L403.794843,218 L425.403485,218 C431.940053,218 437.016923,220.187433 440.634247,224.562364 C444.251571,228.937296 446.060206,235.458708 446.060206,244.126797 C446.060206,247.315999 445.774632,250.178061 445.203475,252.713068 C444.632319,255.248075 443.886654,257.415064 442.966457,259.214102 C442.046261,261.013139 441.015022,262.485056 439.872709,263.629898 C438.730396,264.77474 437.619831,265.592472 436.54098,266.083119 L448.059243,304.844 L431.971751,304.844 Z M431.019829,244.207173 C431.019829,241.999264 430.78185,240.200253 430.305887,238.810088 C429.829923,237.419923 429.21118,236.315985 428.449638,235.498241 C427.688096,234.680497 426.847239,234.128528 425.927043,233.842317 C425.006846,233.556107 424.102529,233.413004 423.214063,233.413004 L418.45445,233.413004 L418.45445,255.369326 L422.928487,255.369326 C425.086189,255.369326 426.97415,254.490264 428.592426,252.732114 C430.210703,250.973964 431.019829,248.132345 431.019829,244.207173 Z" id="HR" fill="#726559"></path>
    </g>
</svg>